<?xml version="1.0" encoding="utf-8"?>
<!-- Generator: Adobe Illustrator 19.0.1, SVG Export Plug-In . SVG Version: 6.00 Build 0)  -->
<svg version="1.1" id="Layer_1" xmlns="http://www.w3.org/2000/svg" xmlns:xlink="http://www.w3.org/1999/xlink" x="0px" y="0px"
	 viewBox="137 324.7 196.2 196.2" style="enable-background:new 137 324.7 196.2 196.2;" xml:space="preserve">
<style type="text/css">
	.st0{fill:#414042;}
	.st1{fill:#E6E7E8;}
	.st2{fill:#E6E6E6;}
	.st3{fill:none;}
	.st4{opacity:0.4;fill:#E6E7E8;enable-background:new    ;}
</style>
<circle class="st0" cx="235.1" cy="422.8" r="98.1"/>
<circle class="st1" cx="235.1" cy="422.8" r="35.1"/>
<path class="st1" d="M255,404.3"/>
<path class="st2" d="M256.8,422.8l29.5-29.5c6-6,6-15.8,0-21.7l0,0c-6-6-15.8-6-21.7,0l-29.5,29.5l-29.5-29.5c-6-6-15.8-6-21.7,0
	l0,0c-6,6-6,15.8,0,21.7l29.5,29.5l-29.5,29.5c-6,6-6,15.8,0,21.7l0,0c6,6,15.8,6,21.7,0l29.5-29.5l29.5,29.5c6,6,15.8,6,21.7,0
	c6-6,6-15.8,0-21.7L256.8,422.8z"/>
<line class="st3" x1="102.5" y1="386.6" x2="95.7" y2="460.6"/>
<rect x="234.9" y="361.4" class="st4" width="0.3" height="122.8"/>
<rect x="173.7" y="422.6" class="st4" width="122.8" height="0.3"/>
</svg>
